<svg version="1.1" xmlns="http://www.w3.org/2000/svg" viewBox="0 0 787.4824019938964 307.39716119965476" width="787.4824019938964" height="307.39716119965476" filter="invert(93%) hue-rotate(180deg)">
  <!-- svg-source:excalidraw -->
  
  <defs>
    <style class="style-fonts">
      @font-face {
        font-family: "Virgil";
        src: url("https://excalidraw.com/Virgil.woff2");
      }
      @font-face {
        font-family: "Cascadia";
        src: url("https://excalidraw.com/Cascadia.woff2");
      }
      @font-face {
        font-family: "Assistant";
        src: url("https://excalidraw.com/Assistant-Regular.woff2");
      }
    </style>
    
  </defs>
  <rect x="0" y="0" width="787.4824019938964" height="307.39716119965476" fill="#ffffff"></rect><g stroke-linecap="round" transform="translate(370.7930883800303 179.97733652572768) rotate(0 77.50455040304837 51.84787164893581)"><path d="M25.92 0 C56.67 -0.52, 87.17 -1.78, 129.09 0 M25.92 0 C48.19 0.2, 70.99 1.42, 129.09 0 M129.09 0 C147.42 -0.16, 153.88 9.12, 155.01 25.92 M129.09 0 C144.52 1.74, 156.44 10.68, 155.01 25.92 M155.01 25.92 C153.93 38.84, 154.34 56.35, 155.01 77.77 M155.01 25.92 C156.08 45.46, 155.94 64.21, 155.01 77.77 M155.01 77.77 C153.29 93.61, 144.54 102.13, 129.09 103.7 M155.01 77.77 C153.26 92.83, 146.97 101.84, 129.09 103.7 M129.09 103.7 C89.57 102.51, 49.92 102.69, 25.92 103.7 M129.09 103.7 C92.57 104.56, 55.85 104.84, 25.92 103.7 M25.92 103.7 C9.12 103.2, -1.04 93.6, 0 77.77 M25.92 103.7 C9.73 101.67, -1.58 95.63, 0 77.77 M0 77.77 C-1.24 59.02, -1.75 38.91, 0 25.92 M0 77.77 C0.2 64.2, -0.25 50.57, 0 25.92 M0 25.92 C-0.99 9.35, 9.53 1.84, 25.92 0 M0 25.92 C0.18 10.59, 7.44 -2.26, 25.92 0" stroke="#1e1e1e" stroke-width="2" fill="none"></path></g><g transform="translate(405.75949937822077 154.23046157469534) rotate(0 43.66996765136719 12.5)"><text x="0" y="17.52" font-family="Virgil, Segoe UI Emoji" font-size="20px" fill="#1e1e1e" text-anchor="start" style="white-space: pre;" direction="ltr" dominant-baseline="alphabetic">CHANELL</text></g><g stroke-linecap="round" transform="translate(258.2094474694135 33.4743569729109) rotate(0 80.1771211066017 55.58947063391054)"><path d="M27.79 0 C66.44 -0.05, 103.97 0.52, 132.56 0 M27.79 0 C54.42 -0.43, 79.91 -0.77, 132.56 0 M132.56 0 C151.26 1.29, 162.2 11.25, 160.35 27.79 M132.56 0 C150.07 -0.14, 160.04 10.56, 160.35 27.79 M160.35 27.79 C160.07 40.57, 160.5 52.54, 160.35 83.38 M160.35 27.79 C160.99 38.04, 160.74 50.67, 160.35 83.38 M160.35 83.38 C159.57 101.02, 152.17 110.9, 132.56 111.18 M160.35 83.38 C159.74 102.51, 150.16 109.29, 132.56 111.18 M132.56 111.18 C95.93 111.81, 58.93 109.52, 27.79 111.18 M132.56 111.18 C105.54 109.83, 80.03 110.05, 27.79 111.18 M27.79 111.18 C8.14 111.37, 1.36 100.61, 0 83.38 M27.79 111.18 C10.17 112.05, -2.06 102.89, 0 83.38 M0 83.38 C0.8 66.26, -1.35 48.72, 0 27.79 M0 83.38 C-0.32 70.93, 0.61 58.12, 0 27.79 M0 27.79 C1.32 8.34, 8.77 0.07, 27.79 0 M0 27.79 C1.13 9.31, 7.1 2.22, 27.79 0" stroke="#1e1e1e" stroke-width="2" fill="none"></path></g><g transform="translate(272.1068151278911 12.093791344483748) rotate(0 69.0799331665039 25)"><text x="0" y="17.52" font-family="Virgil, Segoe UI Emoji" font-size="20px" fill="#1e1e1e" text-anchor="start" style="white-space: pre;" direction="ltr" dominant-baseline="alphabetic">GOROUTINES</text><text x="0" y="42.519999999999996" font-family="Virgil, Segoe UI Emoji" font-size="20px" fill="#1e1e1e" text-anchor="start" style="white-space: pre;" direction="ltr" dominant-baseline="alphabetic"></text></g><g stroke-linecap="round" transform="translate(590.7326908046749 33.785879261625155) rotate(0 84.85411983782012 92.49999999999999)"><path d="M32 0 C62.64 -1.53, 90.24 -0.51, 137.71 0 M32 0 C73.34 -0.38, 115.49 0.56, 137.71 0 M137.71 0 C159 -1.62, 168.83 9.35, 169.71 32 M137.71 0 C160.4 1.47, 170.64 11.84, 169.71 32 M169.71 32 C167.85 56.06, 168.94 81.53, 169.71 153 M169.71 32 C169.73 67.37, 169.02 102.14, 169.71 153 M169.71 153 C170.94 175.85, 157.96 184.05, 137.71 185 M169.71 153 C169.38 172.52, 160.9 183.8, 137.71 185 M137.71 185 C97.61 186.38, 57.01 183.99, 32 185 M137.71 185 C103.46 185.73, 67.62 184.67, 32 185 M32 185 C12.3 183.45, -1.65 176.04, 0 153 M32 185 C9.14 182.7, -1.08 172.05, 0 153 M0 153 C2.02 117.02, -1.38 79.45, 0 32 M0 153 C-1.81 116.43, -0.84 78.1, 0 32 M0 32 C1.7 8.89, 11.56 -1.92, 32 0 M0 32 C-1.34 12.34, 12.47 1.46, 32 0" stroke="#1e1e1e" stroke-width="2" fill="none"></path></g><g transform="translate(595.916904026284 38.785879261625155) rotate(0 79.66990661621094 87.49999999999999)"><text x="79.66990661621094" y="17.52" font-family="Virgil, Segoe UI Emoji" font-size="20px" fill="#1e1e1e" text-anchor="middle" style="white-space: pre;" direction="ltr" dominant-baseline="alphabetic">The main </text><text x="79.66990661621094" y="42.519999999999996" font-family="Virgil, Segoe UI Emoji" font-size="20px" fill="#1e1e1e" text-anchor="middle" style="white-space: pre;" direction="ltr" dominant-baseline="alphabetic">goroutine will </text><text x="79.66990661621094" y="67.52" font-family="Virgil, Segoe UI Emoji" font-size="20px" fill="#1e1e1e" text-anchor="middle" style="white-space: pre;" direction="ltr" dominant-baseline="alphabetic">hold all data </text><text x="79.66990661621094" y="92.52" font-family="Virgil, Segoe UI Emoji" font-size="20px" fill="#1e1e1e" text-anchor="middle" style="white-space: pre;" direction="ltr" dominant-baseline="alphabetic">received by the </text><text x="79.66990661621094" y="117.52" font-family="Virgil, Segoe UI Emoji" font-size="20px" fill="#1e1e1e" text-anchor="middle" style="white-space: pre;" direction="ltr" dominant-baseline="alphabetic">channel inside a</text><text x="79.66990661621094" y="142.52" font-family="Virgil, Segoe UI Emoji" font-size="20px" fill="#1e1e1e" text-anchor="middle" style="white-space: pre;" direction="ltr" dominant-baseline="alphabetic">array</text><text x="79.66990661621094" y="167.52" font-family="Virgil, Segoe UI Emoji" font-size="20px" fill="#1e1e1e" text-anchor="middle" style="white-space: pre;" direction="ltr" dominant-baseline="alphabetic"></text></g><g transform="translate(577.1025802165526 10) rotate(0 100.18991088867188 25)"><text x="0" y="17.52" font-family="Virgil, Segoe UI Emoji" font-size="20px" fill="#1e1e1e" text-anchor="start" style="white-space: pre;" direction="ltr" dominant-baseline="alphabetic">MAIN GOROUTINES</text><text x="0" y="42.519999999999996" font-family="Virgil, Segoe UI Emoji" font-size="20px" fill="#1e1e1e" text-anchor="start" style="white-space: pre;" direction="ltr" dominant-baseline="alphabetic"></text></g><g transform="translate(275.41363333317906 78.0978657042865) rotate(0 64.21992492675781 12.5)"><text x="0" y="17.52" font-family="Virgil, Segoe UI Emoji" font-size="20px" fill="#1e1e1e" text-anchor="start" style="white-space: pre;" direction="ltr" dominant-baseline="alphabetic">go process(c)</text></g><g stroke-linecap="round"><g transform="translate(336.8994171169271 143.6827017402845) rotate(0 22.07501133815549 23.313359684671155)"><path d="M-1.07 0.12 C6.35 7.77, 37 38.21, 44.45 45.84 M0.57 -0.86 C7.86 6.93, 36.65 39.02, 43.66 46.96" stroke="#1e1e1e" stroke-width="2" fill="none"></path></g><g transform="translate(336.8994171169271 143.6827017402845) rotate(0 22.07501133815549 23.313359684671155)"><path d="M21.64 35.12 C28.33 39.31, 33.31 41.47, 43.66 46.96 M21.64 35.12 C27.25 38.48, 31.24 40.46, 43.66 46.96" stroke="#1e1e1e" stroke-width="2" fill="none"></path></g><g transform="translate(336.8994171169271 143.6827017402845) rotate(0 22.07501133815549 23.313359684671155)"><path d="M34.4 23.73 C37.32 31.17, 38.53 36.69, 43.66 46.96 M34.4 23.73 C37.02 29.75, 37.99 34.43, 43.66 46.96" stroke="#1e1e1e" stroke-width="2" fill="none"></path></g></g><mask></mask><g stroke-linecap="round" transform="translate(10 148.29413552406558) rotate(0 118.10394301794958 74.5515128377946)"><path d="M32 0 C93.2 3.1, 152.87 2.47, 204.21 0 M32 0 C81.45 -0.45, 131.95 1.12, 204.21 0 M204.21 0 C225.39 1.52, 236.19 9.42, 236.21 32 M204.21 0 C223.92 1.91, 234.23 9.44, 236.21 32 M236.21 32 C235.15 61.85, 238.83 87.33, 236.21 117.1 M236.21 32 C236.39 53.76, 237.22 76.43, 236.21 117.1 M236.21 117.1 C235.09 139.23, 226.87 150.64, 204.21 149.1 M236.21 117.1 C238.07 136.44, 226.49 148, 204.21 149.1 M204.21 149.1 C149.06 149.7, 97.67 150.15, 32 149.1 M204.21 149.1 C160.88 147.13, 116.43 146.77, 32 149.1 M32 149.1 C10.5 147.44, -0.33 138.26, 0 117.1 M32 149.1 C9.93 147.85, 1.81 140.61, 0 117.1 M0 117.1 C2.15 96.57, 2.12 78.23, 0 32 M0 117.1 C0.37 92.88, -0.5 68.73, 0 32 M0 32 C1.95 9.61, 9.95 0.69, 32 0 M0 32 C-0.55 11.31, 8.41 2.24, 32 0" stroke="#1e1e1e" stroke-width="2" fill="none"></path></g><g transform="translate(44.841944144123886 126.2617296682225) rotate(0 79.39990997314453 25)"><text x="0" y="17.52" font-family="Virgil, Segoe UI Emoji" font-size="20px" fill="#1e1e1e" text-anchor="start" style="white-space: pre;" direction="ltr" dominant-baseline="alphabetic">process function</text><text x="0" y="42.519999999999996" font-family="Virgil, Segoe UI Emoji" font-size="20px" fill="#1e1e1e" text-anchor="start" style="white-space: pre;" direction="ltr" dominant-baseline="alphabetic"></text></g><g transform="translate(20.24763063062494 194.40847336187673) rotate(0 111.9198989868164 25)"><text x="0" y="17.52" font-family="Virgil, Segoe UI Emoji" font-size="20px" fill="#1e1e1e" text-anchor="start" style="white-space: pre;" direction="ltr" dominant-baseline="alphabetic">WRITE 123 </text><text x="0" y="42.519999999999996" font-family="Virgil, Segoe UI Emoji" font-size="20px" fill="#1e1e1e" text-anchor="start" style="white-space: pre;" direction="ltr" dominant-baseline="alphabetic">INSIDE THE CHANELL</text></g><g transform="translate(53.040048648624065 256.406638677156) rotate(0 5.019996643066406 12.5)"><text x="0" y="17.52" font-family="Virgil, Segoe UI Emoji" font-size="20px" fill="#1e1e1e" text-anchor="start" style="white-space: pre;" direction="ltr" dominant-baseline="alphabetic">c</text></g><g stroke-linecap="round"><g transform="translate(109.91439864859092 270.2409400284994) rotate(0 -14.090492117108909 0)"><path d="M-0.25 -0.37 C-4.96 -0.32, -23.91 -0.2, -28.54 -0.13 M0.62 0.63 C-3.9 0.8, -22.68 0.5, -27.48 0.51" stroke="#1e1e1e" stroke-width="2" fill="none"></path></g><g transform="translate(109.91439864859092 270.2409400284994) rotate(0 -14.090492117108909 0)"><path d="M-14.21 -4.21 C-18.02 -3.52, -21.04 -1.62, -27.48 0.51 M-14.21 -4.21 C-18.3 -3.09, -22.78 -1.51, -27.48 0.51" stroke="#1e1e1e" stroke-width="2" fill="none"></path></g><g transform="translate(109.91439864859092 270.2409400284994) rotate(0 -14.090492117108909 0)"><path d="M-14.28 5.42 C-18.04 3.71, -21.04 3.19, -27.48 0.51 M-14.28 5.42 C-18.32 3.53, -22.78 2.1, -27.48 0.51" stroke="#1e1e1e" stroke-width="2" fill="none"></path></g></g><mask></mask><g transform="translate(125.28584459452793 258.456164803281) rotate(0 16.639984130859375 12.5)"><text x="0" y="17.52" font-family="Virgil, Segoe UI Emoji" font-size="20px" fill="#1e1e1e" text-anchor="start" style="white-space: pre;" direction="ltr" dominant-baseline="alphabetic">123</text></g><g stroke-linecap="round"><g transform="translate(244.67074144130572 268.1914139023745) rotate(0 61.998165315279266 -1.2809538288281033)"><path d="M0.18 0.85 C20.79 0.43, 103.78 -2.06, 124.33 -2.52 M-1.18 0.25 C19.23 0.03, 102.96 -0.27, 123.56 -0.97" stroke="#1e1e1e" stroke-width="2" fill="none"></path></g><g transform="translate(244.67074144130572 268.1914139023745) rotate(0 61.998165315279266 -1.2809538288281033)"><path d="M100.21 7.97 C110.01 5.28, 117.03 0.64, 123.56 -0.97 M100.21 7.97 C107.89 4.17, 116.29 1.18, 123.56 -0.97" stroke="#1e1e1e" stroke-width="2" fill="none"></path></g><g transform="translate(244.67074144130572 268.1914139023745) rotate(0 61.998165315279266 -1.2809538288281033)"><path d="M99.93 -9.13 C109.83 -5.68, 116.95 -4.19, 123.56 -0.97 M99.93 -9.13 C107.76 -6.91, 116.26 -3.87, 123.56 -0.97" stroke="#1e1e1e" stroke-width="2" fill="none"></path></g></g><mask></mask><g transform="translate(379.9394657655515 203.63134092943884) rotate(0 69.46375274658203 23.409507882891006)"><text x="0" y="10.936922082886682" font-family="Virgil, Segoe UI Emoji" font-size="12.485070870875209px" fill="#1e1e1e" text-anchor="start" style="white-space: pre;" direction="ltr" dominant-baseline="alphabetic">channel will hold </text><text x="0" y="26.54326067148069" font-family="Virgil, Segoe UI Emoji" font-size="12.485070870875209px" fill="#1e1e1e" text-anchor="start" style="white-space: pre;" direction="ltr" dominant-baseline="alphabetic">this values and return</text><text x="0" y="42.1495992600747" font-family="Virgil, Segoe UI Emoji" font-size="12.485070870875209px" fill="#1e1e1e" text-anchor="start" style="white-space: pre;" direction="ltr" dominant-baseline="alphabetic">to the main goroutine</text></g><g stroke-linecap="round"><g transform="translate(518.7948608105179 184.67322426278312) rotate(0 29.97281285113479 -6.928938161383769)"><path d="M-0.02 0.11 C9.86 -2.08, 48.77 -12.12, 58.87 -14.3 M-1.49 -0.87 C8.78 -2.79, 50.74 -10.67, 61.02 -12.99" stroke="#1e1e1e" stroke-width="2" fill="none"></path></g><g transform="translate(518.7948608105179 184.67322426278312) rotate(0 29.97281285113479 -6.928938161383769)"><path d="M39.7 0.08 C45.7 -5.19, 50.45 -5.79, 61.02 -12.99 M39.7 0.08 C47.12 -3.81, 54.93 -10.16, 61.02 -12.99" stroke="#1e1e1e" stroke-width="2" fill="none"></path></g><g transform="translate(518.7948608105179 184.67322426278312) rotate(0 29.97281285113479 -6.928938161383769)"><path d="M36.29 -16.68 C43.03 -17.48, 48.7 -13.62, 61.02 -12.99 M36.29 -16.68 C45.14 -14.21, 54.23 -14.22, 61.02 -12.99" stroke="#1e1e1e" stroke-width="2" fill="none"></path></g></g><mask></mask></svg>